<svg version="1.2" xmlns="http://www.w3.org/2000/svg" viewBox="0 0 1418 386" width="1418" height="386">
	<title>zerowaste</title>
	<style>
		.s0 { fill: #ffffff } 
	</style>
	<path class="s0" d="m447.4 165.9c1.3 8.7 1.9 17.7 1.9 26.9 0 9.1-0.6 18.1-1.9 26.9-7.6 52.8-37 98.6-78.9 127.7-16.5 11.5-34.9 20.4-54.6 26.2q0.8-9.5 0.8-19.3c0-12.6-1.1-24.9-3.1-36.9-6.4-36.5-21.9-69.9-44.2-97.7-17.6-21.8-39.2-40.2-63.9-53.8-20.6-11.5-43.3-19.6-67.3-23.8-3.1 7.6-5.5 15.5-7.2 23.8q-0.2 1.1-0.4 2.2c-1.5 8-2.3 16.3-2.3 24.7 0 9.2 0.9 18.2 2.7 26.9 0.2 1.2 0.5 2.3 0.8 3.5 11.6 49.8 50.8 89.1 100.7 100.7-8.3-35.6-30.7-65.8-61-84.4-6.1-3.8-10.6-9.8-12.2-16.9l-1.5-6.6q-0.3-0.9-0.4-1.7c-1.5-7-2.2-14.3-2.2-21.5 0-6.1 0.6-12.4 1.7-18.6 29 9 55.1 24.7 76.3 45.5 28.4 27.8 48 64.4 54.4 105.4 1.4 9.5 2.2 19.3 2.2 29.2 0 8.6-0.6 17-1.7 25.2-8.2 1.1-16.6 1.7-25.2 1.7-9.9 0-19.7-0.7-29.2-2.2-80.7-12.6-144.4-76.3-157-157-0.1-0.8-0.2-1.5-0.3-2.3-1.3-8.8-2-17.8-2-26.9 0-8.6 0.7-17 1.8-25.2q0.1-0.9 0.2-1.7c1.3-8.9 3.2-17.6 5.6-26.1 5.8-19.7 14.7-38.1 26.2-54.6 21.8 0.5 42.9 3.7 63 9.1 47.1 12.7 89.1 37.8 122.2 71.6 15.8 16.1 29.7 34.1 41 53.8 11.7 20.1 20.8 41.8 27 64.7 16.5-17.8 28.4-40 33.4-64.7 1.8-8.7 2.7-17.7 2.7-26.9 0-9.2-0.9-18.2-2.7-26.9-12.5-61.4-66.9-107.7-131.9-107.7-19.6 0-38.2 4.2-55 11.8-5.8 2.6-12.4 3-18.5 1.3l-11.2-3c-15.9-4.3-32.1-7.2-48.5-8.7 34.1-34.2 81.2-55.3 133.2-55.3 94.9 0 173.4 70.2 186.5 161.6z"/>
	<path class="s0" d="m897.2 189.1l-29.5-103.7h25.6l15.8 63.4 15.9-63.7h21.6l16 63.7 15.7-63.4h25.1l-29.5 103.7h-22.6l-15.8-61-15.9 61h-22.4zm-316.7-19.4h-48.3l48.3-65.1v-19.5h-77.2v19.5h46.4l-48 65.2v19.3h78.8zm78.1 0h-45.1v-23.1h38.7v-19.5h-38.7v-22.4h44.5v-19.5h-67v104h67.6v-19.4zm664.7 0h-45.1v-23.2h38.7v-19.5h-38.7v-22.4h44.5v-19.5h-67v104h67.6v-19.4zm-153.8-65.1h27.3v84.5h22.6v-84.5h27.3v-19.5h-77.2zm-420.7 33.8v-1.8c0-31.4 19.7-53.4 47.4-53.4 27.6 0 47.2 21.9 47.2 53.1v1.8c0 31.3-19.7 53.4-47.4 53.4-27.7 0-47.2-21.8-47.2-53.1zm23.2-0.6c0 19.5 9.7 32.7 24.2 32.7 14.4 0 23.8-13.1 23.8-32.5v-1.1c0-19.5-9.6-32.6-24-32.6-14.3 0-23.9 13-23.9 32.5v1zm-79.2 51.4h-24.4v-104h37.4c19.9 0 38.9 8.4 38.9 31.2 0 19.7-12.7 27.4-20.4 29.8l26.4 43h-28.4l-21.8-39.8h-7.7v39.8zm-0.2-58.5h9.7c9 0 17.8-2.7 17.8-13.4 0-10.7-8.8-13.3-17.8-13.3h-9.7zm433.9 39.9c-8 0-19.6-5.2-27.2-13.1l-12 17.8c8.4 7.9 21.8 15.7 36.9 15.7 20.2 0 40.4-11 40.4-33.5 0-15-9.3-23.6-22.6-28.5-3.3-1.3-11-4-15.5-5.8-4.7-1.8-10.6-4.3-10.6-10.6 0-6.3 5.7-9.3 13.6-9.3 7.8 0 17.2 4.5 23.2 10.5l10.4-17c-7.1-7.1-21-12.8-33-12.8-12.1 0-21.6 3.3-27.4 8.3-6.1 4.9-10.9 12.8-10.9 22.7 0 10 3.6 15.9 8.1 20.1 4.6 4.3 9.8 6.3 12.4 7.5 3.5 1.5 11.3 4.2 15.8 5.9 4.6 1.7 12.2 4.4 12.2 11.5 0 7-6 10.7-13.8 10.7zm-142.5 18.5l39.2-104.2h25.3l39.2 104.2h-26.6l-7.4-21h-37l-7.4 21h-25.3zm38.2-39.9h26l-13-37.4c0 0-12.9 37.4-13 37.4zm95.2 178.1h24.4v-104.1h-24.4zm-291.5-43.3l-42.5-60.7h-21.1v104.1h22.5v-62.9l44 62.9h19.7v-104.1h-22.6zm123.5-8c0 30.5-20.8 51.4-53 51.4h-35.9v-104h35.9c32.2 0 53 20.8 53 51.3zm-23.8-0.9c0-20.7-11.9-32.2-29.4-32.2h-12.7v65h12.7c17.5 0 29.4-11.4 29.4-32.1 0 0 0-0.7 0-0.7zm-196.3 12.9c0 14.5-6.1 21.7-17.3 21.7-11.2 0-17.4-7.3-17.4-22.2v-64.1h-22.5v64c0 28.3 15.5 42.3 39.6 42.3 24.1 0 40.1-13.9 40.1-42.8v-63.5h-22.5zm593.7-64.6v60.6l-46-60.6h-22.8v104h24.4v-62.9l47.5 62.9h21.2v-104c0 0-24.3 0-24.3 0zm-291.8 19.4h26.4v84.6h24.4v-84.6h26.4v-19.4h-77.2c0 0 0 19.4 0 19.4zm-365.8 31.7v1.8c0 31.3-19.8 53.4-47.4 53.4-27.7 0-47.3-21.8-47.3-53.1v-1.8c0-31.4 19.7-53.4 47.4-53.4 27.7 0 47.3 21.9 47.3 53.1zm-23.5 0.6c0-19.5-9.6-32.6-23.9-32.6-14.4 0-24 13-24 32.5v1c0 19.6 9.7 32.7 24.1 32.7 14.4 0 23.8-13.1 23.8-32.5v-1.1zm603.3-0.6v1.8c0 31.3-19.8 53.4-47.5 53.4-27.6 0-47.2-21.8-47.2-53.1v-1.8c0-31.4 19.7-53.4 47.4-53.4 27.7 0 47.3 21.9 47.3 53.1zm-23.5 0.6c0-19.5-9.6-32.6-24-32.6-14.3 0-23.9 13-23.9 32.5v1c0 19.6 9.7 32.7 24.1 32.7 14.4 0 23.8-13.1 23.8-32.5v-1.1zm-720.1 52.3h24.3v-39.6h38.3v-19.5h-38.3v-25.5h40.7v-19.4h-65c0 0 0 104 0 104zm506.7-104.2l39.1 104.2h-26.5l-7.4-20.9h-37.1l-7.3 20.9h-25.4l39.2-104.2c0 0 25.3 0 25.4 0zm-0.3 64.3l-13-37.4-13 37.4c0 0 26 0 26 0z"/>
</svg>