<?xml version="1.0" encoding="UTF-8"?>
<svg id="katman_1" xmlns="http://www.w3.org/2000/svg" xmlns:xlink="http://www.w3.org/1999/xlink" version="1.1" viewBox="0 0 500 188.5">
  <!-- Generator: Adobe Illustrator 29.0.0, SVG Export Plug-In . SVG Version: 2.1.0 Build 186)  -->
  <defs>
    <style>
      .st0 {
        fill: #fff;
      }

      .st1 {
        clip-path: url(#clippath);
      }
    </style>
    <clipPath id="clippath">
      <path class="st0" d="M36,145.2c-3.5,0-4.4-3-2.3-5.3,1.9-2.3,6.1-6.8,8.7-10.8-6.6-5.8-10.3-16.1-10.3-32.5,0-24.4,10.7-37.4,28.7-37.4s29,13,29,37.4-10.6,37.4-26.5,38.3c-8.6,5.2-21.3,10.2-27,10.2,0,0-.2,0-.3,0M17,51c-9.1,11.6-13.7,27-13.7,45.6s4.6,36.2,14,47.8c7.1,8.8,20.5,19.4,43.5,19.4s57.7-17.6,57.7-67.2S89.5,30.5,60.8,30.5s-33.4,7.3-43.8,20.6"/>
    </clipPath>
  </defs>
  <g>
    <g>
      <path class="st0" d="M151.3,34.1c3.3.1,5.9.2,7.7.2s2.4,0,4.3-.1c1.9,0,3.4-.1,4.3-.1l.2.2c0,0-.3.8-1,2.1-.7,1.3-1.1,2-1.2,2.2l-4.5,8c-.8,1.1-1.4,2.1-1.6,3.1l-6.4,11.6c-.8.8-1.1,1.5-1.1,2.1s1.6.8,4.9.8,1.3,0,2.3,0c1,0,1.6,0,1.8,0s.5,0,.8,0c.3,0,.6.1.8.2.2,0,.3.1.3.1l.3-.2c.2-.1.3-.2.4-.2.3,0,.6,0,1,0,.4,0,.7,0,1,0,.5,0,.8.2.8.5s-.2,1.1-.7,2.4c-.5,1.3-1,2.6-1.5,3.8-.5,1.2-.8,1.8-.8,1.8h-15.8c-1.2-.1-3,0-5.4,0s-4.2,0-5.3,0c0,0-.1-.2-.1-.3l5.7-10.8.7-.9,6.9-12.4c.1-.4.6-1.3,1.5-2.5.8-1.2,1.3-2.1,1.3-2.6s0-.5-.1-.6-.4-.1-.8-.1c-1.5,0-3.5,0-6.1,0s-4.6,0-6.1,0c-.1,0-.2-.2-.2-.5s0-.3.1-.3l2.5-7.3.4-.3c.1,0,.4,0,.7,0,.3,0,.6,0,.6,0,1.8,0,4.4,0,7.7.2Z"/>
      <path class="st0" d="M196.9,49.2c.1,0,.2.1.4.3.1.2.2.4.2.5,0,.5,0,1.7-.1,3.6,0,1.9,0,3,0,3.4l-.4.3c-5.9,0-9.4,0-10.4.2-.3,0-.5.6-.5,1.6s0,1,0,2.2c0,1.2,0,2.1,0,2.6.1.2,1,.4,2.5.4s3.4,0,5.4.1c2,0,3.4,0,4.1.2.3.2.5.8.5,1.6s0,1.3,0,2.3,0,1.8,0,2.3,0,.8-.3,1.1-.5.5-1,.6c-.5.1-.9.2-1.3.2-.4,0-1,0-1.8,0-1.8,0-4.4,0-7.7,0-3.3,0-5.8,0-7.5,0s-.2,0-.4,0c-.3,0-.5,0-.7,0-1,0-1.6-.3-1.8-.8,0-.7,0-1.6,0-2.8,0-1.1,0-1.9,0-2.4,0-1.2.1-2,.4-2.5,0-.1,0-.2-.2-.2,0-.8,0-2,0-3.7,0-1.7,0-2.9,0-3.8,0-2,0-5.9.2-11.7s.2-8.8.2-9.1,0-.3,0-.5c0-.2,0-.4,0-.5l.5-.4c1,0,2.6,0,4.7-.1,2.1,0,3.7-.1,4.8-.1s1.2,0,2.4,0c1.2,0,2.1,0,2.8,0,4,0,6.2.1,6.5.4l.2,1.3c0,.3,0,1.1,0,2.7s0,2.4,0,2.7c0,.6-.5,1-1.5,1.1s-2.8.2-5.4.2-.7,0-1.2,0-.9,0-1.1,0h-2.6c0,.5,0,1.1-.1,2.1,0,1-.1,1.8-.1,2.4s0,0,0,.1h0c0,1.1.3,1.6.9,1.6h10Z"/>
      <path class="st0" d="M223.7,34.7c3.5,0,6.5,1.3,9.1,3.8,2.6,2.5,4,5.5,4,9s-.8,5.1-2.3,7.1-3.6,3.5-6.2,4.6c-.1,0-.2,0-.2.3h0c0,0,0,.1,0,.2l9.3,11.4c.1.2.2.4.3.6s.2.4.2.5,0,.2,0,.2c0,.1-.6.2-1.8.3s-2,.1-2.4.1-.5,0-.6-.2h-5.8c-.4,0-.7-.2-.9-.6l-7.6-9s-.1-.1-.2-.3c-.1-.1-.2-.3-.3-.3-.1,0-.2-.1-.3-.1s-.2.2-.3.7v8.8c0,.3-.1.4-.3.4h-7.4c-.7,0-1.1-.1-1.3-.4-.2-.3-.4-.8-.4-1.5,0-3.2,0-7.3,0-12.3s0-8.7,0-11.2,0-1.9,0-4.4v-3.8c0-2.7,0-4,.2-4.1h15.1ZM226.3,44.7c-.9-1.4-2.8-2.1-5.7-2.1s-1.3,0-2.3.1l-.5.5c0,.5,0,1.2,0,2.2,0,1,0,1.8,0,2.5,0,.7,0,1.2,0,1.5,0,2.4.2,3.8.7,4.1h.6c3,0,5.1-.5,6.3-1.3,1.2-.8,1.8-2.4,1.8-4.9s-.2-1.9-.7-2.7Z"/>
      <path class="st0" d="M245.7,61.3c-1.2-2.7-1.7-5.5-1.7-8.5s.8-5.7,2.4-9.3c.4-.3.8-.8,1.2-1.6.5-.8.8-1.3,1-1.5,2.4-2.4,4.7-4.1,6.8-5.1s4.8-1.6,7.8-1.6c6.1,0,11.2,2.1,15.1,6.4,1.3,1.3,2.5,3.2,3.6,5.6,1.1,2.4,1.6,5.1,1.6,8.1,0,5.2-1.9,9.7-5.8,13.6-3.9,3.9-8.6,5.9-14.2,5.9s-5.4-.5-7.7-1.6c-2.3-1.1-4.1-2.3-5.3-3.5-2.1-1.9-3.7-4.2-4.9-6.8ZM263.8,43.5c-2.7,0-5,.9-6.8,2.8s-2.8,4.2-2.8,6.9,1.1,5.7,3.3,7.5c.6.6,1.5,1.1,2.7,1.6,1.2.5,2.6.7,4,.7,2.7,0,5-1,6.8-2.9,1.8-1.9,2.7-4.2,2.7-7s-.8-4.2-2.3-6.3c-2-2.3-4.5-3.5-7.6-3.5Z"/>
      <path class="st0" d="M319.8,34.9l6.5,18.2c.1.2.2.4.3.4.3-.2.6-.9.8-2.3l5.1-15.8c.3-.8.6-1.1.9-1.1h4.2c0,0,.2.1.3.3.1.2.2.4.3.5l5.8,16.9c0,.9.2,1.4.5,1.6.3-.3,1.1-2.4,2.3-6.3l3.9-12c.1-.4.3-.7.5-.7l1.6-.2h8.2c.3,0,.4.2.4.6,0,1.1-.9,3.9-2.7,8.3l-9.3,28.8c-.2.4-.5.7-.8.9-1.7,0-2.8.1-3.1.1s-.8,0-1.9,0c-1.1,0-1.7,0-1.9,0-.3,0-.5-.4-.7-.9-.2-.5-.4-1.2-.5-1.9s-.3-1.1-.5-1.4c-1.2-4.4-2.4-8.2-3.6-11.4-.3,0-.6.2-.7.5l-4.9,14.1c0,0,0,.2-.3.5s-.3.4-.4.4h-6.5c-.4,0-.7,0-1-.1l-13.3-37c-.2-.4-.3-.8-.3-1.1s.6-.6,1.7-.6.8,0,1.4,0c.7,0,1.5,0,2.5,0,3.2,0,4.9.2,5.1.7Z"/>
      <path class="st0" d="M388.6,34.3c.2,0,.7,1,1.6,3,.9,2,1.3,3.1,1.3,3.3.8,2,4.9,12.2,12.4,30.5,0,.5-.2.8-.7,1-.4.1-1.2.2-2.4.2h-2.8c-1.9,0-3.3-.1-4.2-.1,0-.2-.2-.6-.4-1.1-.2-.5-.4-1-.5-1.3-.1-.3-.3-.7-.6-1.1s-.5-.8-.8-1.2c-.3,0-.8,0-1.5-.1-.8,0-1.5-.1-2.1-.1h-6.8c-.1.1-.4,0-1,0-.5,0-.8,0-.9,0-.7,0-1.2.9-1.7,2.6-.5,1.7-.9,2.7-1.2,2.9-1,0-2.2,0-3.6,0-1.4,0-2.6-.1-3.6-.1-1.5,0-2.3-.2-2.3-.7s0-.2,0-.3c0-.1,0-.2,0-.2l3.2-9.2c.5-.9,1-2.4,1.7-4.3.7-1.9,1.1-3.1,1.3-3.5l7.8-19.6c0-.3.5-.4,1.4-.4h6.5ZM384.1,59.7c2.6,0,3.9-.2,3.9-.4,0-.7-.6-2.3-1.7-5-.4-1.1-.7-1.6-.8-1.7l-.7-1.7c-.2,0-.8,1.3-1.8,3.8-1,2.5-1.6,4-1.6,4.4s.4.7,1.2.7h1.4Z"/>
      <path class="st0" d="M423.5,58.6c-.9-.6-1.8-1.2-2.9-1.8s-1.8-1-2-1.2c-4.7-3-7-6.6-7-10.8s1.2-6.2,3.7-7.9c2.5-1.7,5.7-2.6,9.6-2.6s4.3.4,6.5,1.3c.4.1,1,.4,1.9.9.9.4,1.3.7,1.3.9v.3c0,0,0,.1-.2.2,0,0-.1.2-.1.2-1.1,2.3-2.2,4.2-3.3,5.7,0,.1-.1.2-.3.2s-1-.3-2.5-.9c-1.5-.6-2.7-.9-3.5-.9s-1.5.2-2.2.7c-.7.4-1,1-1,1.8s.5,1.9,1.6,2.8c.7.5,2.2,1.5,4.4,2.9.5.3,1.1.8,1.9,1.3s1.4.9,1.8,1.3.9.7,1.5,1.1c.5.5,1,.9,1.4,1.3.9,1.1,1.5,2.1,1.8,3.1.3.9.5,2,.5,3.3,0,3.4-1.3,6.2-3.9,8.4-2.6,2.2-5.7,3.3-9.2,3.3s-7.6-.9-11-2.8c-1.5-.9-2.3-1.5-2.3-1.7v-.2c1.6-2.9,2.9-5.2,4-6.8.5,0,1.1.3,1.8.8.7.5,1.1.8,1.2.8,1.9,1,4.1,1.5,6.6,1.5s3.2-.8,3.2-2.4-.3-1.4-.9-2.2c-.5-.5-1.2-1.1-2.1-1.7Z"/>
      <path class="st0" d="M466,35c0,1.3.1,3.8.1,7.4s-.3.3-1,.3h-4.7c-.4,0-.7.3-.7,1v28.2s0,.1-.3.2c-.2.1-.3.2-.4.2h-8.6l-.4-.3c-.1-.1-.2-8.7-.2-25.7v-3.4c-4.4,0-6.6-.3-6.6-.8v-7s.1-.1.4-.3h9.8c.5,0,.8.1.9.2.1,0,.2,0,.2-.2h10.9l.5.2Z"/>
      <path class="st0" d="M495.5,49.2c.1,0,.2.1.4.3.1.2.2.4.2.5,0,.5,0,1.7-.1,3.6,0,1.9,0,3,0,3.4l-.4.3c-5.9,0-9.4,0-10.4.2-.3,0-.5.6-.5,1.6s0,1,0,2.2c0,1.2,0,2.1,0,2.6.1.2,1,.4,2.5.4,1.6,0,3.4,0,5.4.1,2,0,3.4,0,4.1.2.3.2.5.8.5,1.6s0,1.3,0,2.3,0,1.8,0,2.3-.1.8-.3,1.1-.5.5-1,.6c-.5.1-.9.2-1.3.2-.4,0-1,0-1.8,0-1.8,0-4.4,0-7.7,0-3.3,0-5.8,0-7.5,0s-.2,0-.4,0c-.3,0-.5,0-.7,0-1,0-1.6-.3-1.8-.8,0-.7,0-1.6,0-2.8,0-1.1,0-1.9,0-2.4,0-1.2.1-2,.4-2.5,0-.1,0-.2-.2-.2,0-.8,0-2,0-3.7,0-1.7,0-2.9,0-3.8,0-2,0-5.9.2-11.7.1-5.8.2-8.8.2-9.1s0-.3,0-.5c0-.2,0-.4,0-.5l.5-.4c1,0,2.6,0,4.7-.1,2.1,0,3.7-.1,4.8-.1s1.2,0,2.4,0c1.2,0,2.1,0,2.8,0,4,0,6.2.1,6.5.4l.2,1.3c0,.3,0,1.1,0,2.7s0,2.4,0,2.7c0,.6-.5,1-1.5,1.1s-2.8.2-5.4.2-.7,0-1.2,0c-.5,0-.9,0-1.1,0h-2.6c0,.5,0,1.1-.1,2.1,0,1-.1,1.8-.1,2.4s0,0,0,.1h0c0,1.1.3,1.6.9,1.6h10Z"/>
    </g>
    <g>
      <path class="st0" d="M158.8,92c.1,0,.3,0,.5.2s.4.2.4.2v7.2l-.3.3c-.7,0-1.7,0-3,0-1.3,0-2,0-2.2,0s-.2,0-.3,0-.2,0-.3,0-.1,0-.2,0c0,0-.1,0-.2,0-.5,0-1.1.1-1.6.2-.5,0-.9,0-1.3,0s-.6,0-.8,0c-.3,0-.4,0-.6.1-.1,0-.2.1-.2.2-.1.9-.2,1.9-.2,2.9s0,.6,0,1.1c0,.6,0,1.1,0,1.5.3.5,1.5.8,3.8.8s1.5,0,2.6,0c1.2,0,2.1,0,2.6,0,.9,0,1.5,0,1.6.2.3,1.1.4,2.8.4,5.2s-.5,2.2-1.4,2.2h-9.3c-.3,0-.4.2-.4.7,0,1.2,0,3.4,0,6.6s0,5.8,0,7.9c-.3.3-.8.4-1.6.4h-7.8c-.4,0-.6-.1-.7-.4.1-1.5.2-3.3.2-5.3s0-3-.1-5.7c0-2.7-.1-4.7-.1-6.3,0-2.2,0-5.5.1-9.9,0-4.4.1-7.7.1-9.9s.2-.6.6-.6.6,0,1.1.2.7.2.8.2c.4-.2,1-.3,1.8-.3s1.6,0,3,0c1.4,0,2.3,0,2.6,0h10Z"/>
      <path class="st0" d="M168.9,118.9c-1.2-2.7-1.7-5.5-1.7-8.5s.8-5.7,2.4-9.3c.4-.3.8-.8,1.2-1.6.5-.8.8-1.3,1-1.5,2.4-2.4,4.7-4.1,6.8-5.1s4.8-1.6,7.8-1.6c6.1,0,11.2,2.1,15.1,6.4,1.3,1.3,2.5,3.2,3.6,5.6,1.1,2.4,1.6,5.1,1.6,8.1,0,5.2-1.9,9.7-5.8,13.6-3.9,3.9-8.6,5.9-14.2,5.9s-5.4-.5-7.7-1.6c-2.3-1.1-4.1-2.3-5.3-3.5-2.1-1.9-3.7-4.2-4.9-6.8ZM187,101.1c-2.7,0-5,.9-6.8,2.8-1.8,1.9-2.8,4.2-2.8,6.9s1.1,5.7,3.3,7.5c.6.6,1.5,1.1,2.7,1.6,1.2.5,2.6.7,4,.7,2.7,0,5-1,6.8-2.9,1.8-1.9,2.7-4.2,2.7-7s-.8-4.2-2.3-6.3c-2-2.3-4.5-3.5-7.6-3.5Z"/>
      <path class="st0" d="M230.5,92.3c3.5,0,6.5,1.3,9.1,3.8,2.6,2.5,4,5.5,4,9s-.8,5.1-2.3,7.1-3.6,3.5-6.2,4.6c-.1,0-.2,0-.2.3h0c0,0,0,.1,0,.2l9.3,11.4c.1.2.2.4.3.6s.2.4.2.5,0,.2,0,.2c0,.1-.6.2-1.8.3s-2,.1-2.4.1-.5,0-.6-.2h-5.8c-.4,0-.7-.2-.9-.6l-7.6-9s-.1-.1-.2-.3c-.1-.1-.2-.3-.3-.3-.1,0-.2-.1-.3-.1s-.2.2-.3.7v8.8c0,.3-.1.4-.3.4h-7.4c-.7,0-1.1-.1-1.3-.4-.2-.3-.4-.8-.4-1.5,0-3.2,0-7.3,0-12.3s0-8.7,0-11.2,0-1.9,0-4.4v-3.8c0-2.7,0-4,.2-4.1h15.1ZM233.1,102.3c-.9-1.4-2.8-2.1-5.7-2.1s-1.3,0-2.3.1l-.5.5c0,.5,0,1.2,0,2.2,0,1,0,1.8,0,2.5,0,.7,0,1.2,0,1.5,0,2.4.2,3.8.7,4.1h.6c3,0,5.1-.5,6.3-1.3,1.2-.8,1.8-2.4,1.8-4.9s-.2-1.9-.7-2.7Z"/>
      <path class="st0" d="M272.4,92.3c.4,0,1.7,0,3.7,0,2,0,3.6,0,4.7,0s.8.3.8.8v21.6c0,1.5-.1,2.3-.3,2.3v1.2c0,1.3-.3,2.7-.8,4.1s-1.2,2.6-2.1,3.6c-.1.2-.4.5-.8,1-.4.5-.7.9-1,1.1-.3.2-.5.4-.9.6-.3.1-1.1.5-2.4,1s-2.2.9-2.9,1.3c-.1-.1-.2-.2-.3-.2-.3,0-.8,0-1.4.1-.6,0-1.1.1-1.4.1-1.8,0-3.2-.1-4.4-.4s-2.4-.9-3.8-1.7c-2.3-1.2-3.9-2.6-4.9-4.1-1-1.5-1.7-3.6-2.1-6.1,0-2.5,0-6.2-.1-10.8,0-4.7-.1-8.3-.1-10.9s0-3.9.2-4.6c.4,0,1.2,0,2.4,0,1.2,0,1.9,0,2,0,.6,0,1.4,0,2.5,0,1.1,0,1.9,0,2.5,0l.4.3v20.1c-.2.7-.3,1.3-.3,2s0,.8.2,1.5c.1.7.2,1.3.2,1.8,0,.4.5,1.1,1.3,2,.8.9,1.5,1.3,1.9,1.3h2.8c.2-.3.5-.4.8-.5.4,0,.6-.2.8-.3.4-.3.8-.6,1.1-1,.3-.4.5-.7.6-.8,0-.2.2-.6.4-1.2.2-.6.3-1,.3-1.2,0-.7,0-2.7,0-6.2,0-8.7,0-14.6.2-17.8h.4Z"/>
      <path class="st0" d="M299.8,92.3c.5,0,.9.2,1.1.5l9.9,14.6c.1.2.3.3.5.3s.3-.1.4-.3l10.6-14.3.5-.4h.4c.3,0,.5,0,.9,0,.3,0,.6,0,.8,0,4.3,0,6.5,0,6.5.2l.2.3c0,.1,0,.8.1,1.8,0,1.1.1,1.7.1,1.8,0,22.2-.2,33.3-.5,33.3h-8.6c-.4,0-.5-.7-.5-2s0-3.9.1-7c0-3.1.1-5.5.1-7,0-3.3,0-5,0-5.2l-.3-.7c0,0-.4.4-.9,1.2-.5.8-1.1,1.6-1.6,2.5-.5.8-.8,1.3-.8,1.3-.8,1.2-2,2.8-3.6,4.8-1.6,2-2.7,3.4-3.3,4.2-.2.2-.3.3-.5.3-.3,0-.6-.3-1-1l-2.9-3.7c-.4-.4-.5-.6-.5-.6l-3.3-4.9c-.8-.8-1.8-2.3-2.9-4.4,0,2.1,0,4.9,0,8.5,0,3.5,0,6.1,0,7.7,0,2.3,0,4,.1,5.1,0,0-.1.2-.2.3,0,.1,0,.2-.1.3,0,0,0,.1-.1.1h-8.7c-.3,0-.4-.2-.4-.7v-7.8c0-.2.1-.4.1-.7-.1-1.8-.2-3.5-.2-5,0-2.5,0-6.4.2-11.5.1-5.1.2-8.9.2-11.5,0-.3.2-.5.5-.5h8.1Z"/>
    </g>
    <g>
      <path class="st0" d="M142.6,149.4v14.4h-3.7v-14.4h3.7Z"/>
      <path class="st0" d="M156.6,153.1c-.4-.3-.8-.6-1.2-.7-.4-.2-.8-.2-1.2-.2s-.9.1-1.2.3c-.3.2-.5.5-.5.9s0,.5.2.6c.2.2.4.3.6.4s.5.2.8.3c.3,0,.6.2.9.3,1.2.4,2.1,1,2.7,1.6.6.7.9,1.6.9,2.7s-.1,1.4-.4,2c-.2.6-.6,1.1-1.1,1.5-.5.4-1.1.8-1.8,1-.7.2-1.5.4-2.4.4-1.8,0-3.5-.5-5.1-1.6l1.6-3c.6.5,1.1.9,1.7,1.1.5.2,1.1.4,1.6.4s1.1-.1,1.4-.4c.3-.3.4-.6.4-1s0-.4-.1-.6c0-.2-.2-.3-.4-.4-.2-.1-.4-.3-.7-.4-.3-.1-.6-.2-1-.4-.5-.2-1-.3-1.4-.5-.5-.2-.9-.4-1.2-.7-.4-.3-.7-.7-.9-1.2s-.3-1.1-.3-1.8.1-1.4.4-1.9c.2-.6.6-1.1,1-1.5.4-.4,1-.7,1.6-1,.6-.2,1.3-.3,2.1-.3s1.5,0,2.2.3c.8.2,1.5.5,2.2.9l-1.5,2.9Z"/>
      <path class="st0" d="M169.7,152.5v11.2h-3.7v-11.2h-3.1v-3.2h9.9v3.2h-3.1Z"/>
      <path class="st0" d="M185.6,161.3h-5.4l-.9,2.5h-4l5.5-14.4h4.1l5.5,14.4h-4l-.9-2.5ZM184.6,158.4l-1.7-4.8-1.7,4.8h3.4Z"/>
      <path class="st0" d="M195.2,163.8v-14.4h3.7l6.9,8.8v-8.8h3.7v14.4h-3.7l-6.9-8.8v8.8h-3.7Z"/>
      <path class="st0" d="M215.7,149.4h5.6c1.3,0,2.3.3,3,1,.7.6,1,1.6,1,2.8s-.1,1.3-.4,1.8-.7.9-1.2,1.2c.5.1,1,.3,1.4.5s.7.5.9.8c.2.3.4.6.5,1,.1.4.2.8.2,1.2,0,.7-.1,1.3-.4,1.8-.2.5-.6,1-1,1.3-.4.4-.9.6-1.6.8-.6.2-1.3.3-2.1.3h-6v-14.4ZM219.4,155h.7c1.2,0,1.8-.5,1.8-1.4s-.6-1.4-1.8-1.4h-.7v2.8ZM219.4,160.9h.8c.9,0,1.6-.1,2-.4.4-.2.6-.6.6-1.2s-.2-.9-.6-1.2c-.4-.2-1.1-.4-2-.4h-.8v3.1Z"/>
      <path class="st0" d="M235.7,149.4v7.8c0,.4,0,.9,0,1.3,0,.4.1.8.3,1.2s.4.6.8.9c.3.2.8.3,1.5.3s1.1-.1,1.4-.3.6-.5.8-.9.3-.8.3-1.2c0-.4,0-.9,0-1.3v-7.8h3.7v8.4c0,2.2-.5,3.9-1.5,4.9-1,1-2.6,1.5-4.7,1.5s-3.7-.5-4.7-1.5c-1-1-1.5-2.7-1.5-4.9v-8.4h3.7Z"/>
      <path class="st0" d="M254.4,149.4v11.2h4.5v3.2h-8.2v-14.4h3.7Z"/>
      <path class="st0" d="M284,163.8h-11.6l3.6-3.7c.9-1,1.7-1.8,2.2-2.5.5-.7.9-1.3,1.2-1.7.3-.5.4-.9.5-1.1,0-.3,0-.5,0-.7s0-.4-.1-.6c0-.2-.2-.4-.3-.5-.1-.2-.3-.3-.5-.4-.2,0-.4-.1-.7-.1-.5,0-.9.2-1.2.5s-.4.7-.4,1.2,0,.3,0,.6h-4.1c0-.8.1-1.6.4-2.3.3-.7.7-1.3,1.2-1.8s1.1-.9,1.8-1.1c.7-.3,1.4-.4,2.2-.4s1.5.1,2.2.4c.7.3,1.3.6,1.8,1.1.5.5.9,1,1.2,1.6s.4,1.3.4,2.1-.2,1.5-.5,2.2c-.3.7-.9,1.4-1.6,2.1l-2.4,2.2h4.7v3.2Z"/>
      <path class="st0" d="M288.3,156.6c0-1.1.1-2.2.4-3.1.3-.9.7-1.7,1.3-2.4.5-.7,1.2-1.2,1.9-1.5.7-.4,1.6-.5,2.5-.5s1.7.2,2.5.5c.8.4,1.4.9,1.9,1.5.5.7,1,1.5,1.3,2.4.3.9.4,2,.4,3.1s-.1,2.2-.4,3.1c-.3.9-.7,1.7-1.3,2.4-.5.7-1.2,1.2-1.9,1.5-.8.4-1.6.5-2.5.5s-1.7-.2-2.5-.5c-.7-.4-1.4-.9-1.9-1.5-.5-.7-1-1.5-1.3-2.4-.3-.9-.4-2-.4-3.1ZM292,156.6c0,.6,0,1.2.2,1.7s.3,1,.5,1.4c.2.4.5.7.8.9.3.2.6.3,1,.3s.7-.1,1-.3.6-.5.8-.9c.2-.4.4-.8.5-1.4.1-.5.2-1.1.2-1.7s0-1.2-.2-1.7c-.1-.5-.3-1-.5-1.4-.2-.4-.5-.7-.8-.9s-.6-.3-1-.3-.7.1-1,.3c-.3.2-.5.5-.8.9s-.4.8-.5,1.4-.2,1.1-.2,1.7Z"/>
      <path class="st0" d="M316.1,163.8h-11.6l3.6-3.7c.9-1,1.7-1.8,2.2-2.5.5-.7.9-1.3,1.2-1.7.3-.5.4-.9.5-1.1,0-.3,0-.5,0-.7s0-.4-.1-.6c0-.2-.2-.4-.3-.5-.1-.2-.3-.3-.5-.4-.2,0-.4-.1-.7-.1-.5,0-.9.2-1.2.5s-.4.7-.4,1.2,0,.3,0,.6h-4.1c0-.8.1-1.6.4-2.3.3-.7.7-1.3,1.2-1.8s1.1-.9,1.8-1.1c.7-.3,1.4-.4,2.2-.4s1.5.1,2.2.4c.7.3,1.3.6,1.8,1.1.5.5.9,1,1.2,1.6s.4,1.3.4,2.1-.2,1.5-.5,2.2c-.3.7-.9,1.4-1.6,2.1l-2.4,2.2h4.7v3.2Z"/>
      <path class="st0" d="M330.8,152.5h-5l-.2,1.6c.2,0,.4,0,.6,0,.2,0,.4,0,.6,0,.7,0,1.4.1,2,.4s1.2.6,1.6,1.1c.4.4.8,1,1.1,1.6.3.6.4,1.3.4,2s-.1,1.5-.4,2.1c-.3.6-.7,1.2-1.2,1.6-.5.4-1.2.8-1.9,1s-1.6.4-2.5.4-1.7-.1-2.5-.3c-.8-.2-1.5-.5-2.2-1l.6-3.5c.6.5,1.3,1,2,1.3s1.3.4,1.9.4,1.4-.2,1.8-.6c.4-.4.7-.9.7-1.5s-.3-1.3-.9-1.7c-.6-.4-1.4-.7-2.4-.7s-.9,0-1.3.1c-.5,0-.9.2-1.4.4l1.2-7.7h7.6v3.2Z"/>
    </g>
  </g>
  <g>
    <path class="st0" d="M36,145.2c-3.5,0-4.4-3-2.3-5.3,1.9-2.3,6.1-6.8,8.7-10.8-6.6-5.8-10.3-16.1-10.3-32.5,0-24.4,10.7-37.4,28.7-37.4s29,13,29,37.4-10.6,37.4-26.5,38.3c-8.6,5.2-21.3,10.2-27,10.2,0,0-.2,0-.3,0M17,51c-9.1,11.6-13.7,27-13.7,45.6s4.6,36.2,14,47.8c7.1,8.8,20.5,19.4,43.5,19.4s57.7-17.6,57.7-67.2S89.5,30.5,60.8,30.5s-33.4,7.3-43.8,20.6"/>
    <g class="st1">
      <rect class="st0" x="-26.7" y="11.7" width="175.3" height="170.8" transform="translate(-53.6 91.3) rotate(-55)"/>
    </g>
  </g>
</svg>